<svg width="44" height="44" viewBox="0 0 44 44" fill="none" xmlns="http://www.w3.org/2000/svg">
<path d="M22 40.3334C19.4639 40.3334 17.0805 39.8518 14.85 38.8887C12.6194 37.9256 10.6792 36.6196 9.02916 34.9709C7.37916 33.3221 6.07321 31.3818 5.11133 29.15C4.14944 26.9182 3.66788 24.5349 3.66666 22C3.66544 19.4651 4.14699 17.0818 5.11133 14.85C6.07566 12.6182 7.3816 10.678 9.02916 9.02919C10.6767 7.38041 12.617 6.07446 14.85 5.11135C17.083 4.14824 19.4663 3.66669 22 3.66669C24.5337 3.66669 26.917 4.14824 29.15 5.11135C31.383 6.07446 33.3233 7.38041 34.9708 9.02919C36.6184 10.678 37.9249 12.6182 38.8905 14.85C39.856 17.0818 40.337 19.4651 40.3333 22C40.3297 24.5349 39.8481 26.9182 38.8887 29.15C37.9292 31.3818 36.6233 33.3221 34.9708 34.9709C33.3184 36.6196 31.3781 37.9262 29.15 38.8905C26.9219 39.8549 24.5385 40.3358 22 40.3334Z" fill="#FEBC4E"/>
</svg>
