<svg width="44" height="44" viewBox="0 0 44 44" fill="none" xmlns="http://www.w3.org/2000/svg">
<path d="M22 38.5C21.45 38.5 20.9232 38.401 20.4197 38.203C19.9161 38.005 19.4651 37.7068 19.0667 37.3083L6.78335 24.9792C5.71391 23.9097 4.92741 22.6875 4.42385 21.3125C3.9203 19.9375 3.66791 18.5014 3.66669 17.0042C3.66669 13.8569 4.6903 11.1528 6.73752 8.89167C8.78474 6.63056 11.3361 5.5 14.3917 5.5C15.8584 5.5 17.2413 5.79028 18.5405 6.37083C19.8397 6.95139 20.9929 7.76111 22 8.8C22.9778 7.76111 24.1163 6.95139 25.4155 6.37083C26.7147 5.79028 28.0971 5.5 29.5625 5.5C32.6181 5.5 35.1774 6.63056 37.2405 8.89167C39.3036 11.1528 40.3346 13.8417 40.3334 16.9583C40.3334 18.4556 40.0736 19.8917 39.5542 21.2667C39.0347 22.6417 38.2556 23.8639 37.2167 24.9333L24.8875 37.3083C24.4903 37.7056 24.0472 38.0038 23.5584 38.203C23.0695 38.4022 22.55 38.5012 22 38.5ZM23.8334 14.6667C24.1389 14.6667 24.4292 14.7431 24.7042 14.8958C24.9792 15.0486 25.1931 15.2472 25.3459 15.4917L28.4625 20.1667H36.0709C36.2847 19.6472 36.4455 19.1204 36.553 18.5863C36.6606 18.0522 36.7137 17.5096 36.7125 16.9583C36.6514 14.85 35.9486 13.0393 34.6042 11.5262C33.2597 10.0131 31.5792 9.25711 29.5625 9.25833C28.6153 9.25833 27.7066 9.44167 26.8364 9.80833C25.9661 10.175 25.2096 10.7097 24.5667 11.4125L23.3292 12.7417C23.1764 12.925 22.9778 13.0704 22.7334 13.178C22.4889 13.2856 22.2445 13.3387 22 13.3375C21.7556 13.3363 21.5111 13.2831 21.2667 13.178C21.0222 13.0729 20.8084 12.9274 20.625 12.7417L19.3875 11.4125C18.7459 10.7097 17.9972 10.1597 17.1417 9.7625C16.2861 9.36528 15.3695 9.16667 14.3917 9.16667C12.375 9.16667 10.6945 9.9385 9.35002 11.4822C8.00558 13.0258 7.33335 14.8512 7.33335 16.9583C7.33335 17.5083 7.37919 18.051 7.47085 18.5863C7.56252 19.1217 7.7153 19.6484 7.92919 20.1667H16.5C16.8056 20.1667 17.0959 20.2431 17.3709 20.3958C17.6459 20.5486 17.8597 20.7472 18.0125 20.9917L19.6167 23.375L22.0917 15.95C22.2139 15.5833 22.4351 15.2778 22.7554 15.0333C23.0756 14.7889 23.4349 14.6667 23.8334 14.6667ZM24.3834 20.625L21.9084 28.05C21.7861 28.4167 21.557 28.7222 21.2209 28.9667C20.8847 29.2111 20.5181 29.3333 20.1209 29.3333C19.8153 29.3333 19.525 29.2569 19.25 29.1042C18.975 28.9514 18.7611 28.7528 18.6084 28.5083L15.4917 23.8333H10.8167L21.6792 34.6958C21.7403 34.7569 21.7941 34.7954 21.8405 34.8113C21.887 34.8272 21.9401 34.8346 22 34.8333C22.0599 34.8321 22.1137 34.8248 22.1614 34.8113C22.209 34.7979 22.2622 34.7594 22.3209 34.6958L33.1375 23.8333H27.5C27.1945 23.8333 26.9042 23.7569 26.6292 23.6042C26.3542 23.4514 26.125 23.2528 25.9417 23.0083L24.3834 20.625Z" fill="#FEBC4E"/>
</svg>
