<svg width="44" height="44" viewBox="0 0 44 44" fill="none" xmlns="http://www.w3.org/2000/svg">
<path d="M14.6667 7.33333C14.6667 6.8471 14.4735 6.38079 14.1297 6.03697C13.7859 5.69315 13.3196 5.5 12.8333 5.5C12.3471 5.5 11.8808 5.69315 11.537 6.03697C11.1932 6.38079 11 6.8471 11 7.33333C9.54131 7.33333 8.14236 7.9128 7.11091 8.94425C6.07946 9.9757 5.5 11.3746 5.5 12.8333V16.5C5.4996 19.0998 6.42005 21.6157 8.09807 23.6015C9.77609 25.5873 12.1032 26.9145 14.6667 27.3478V27.5C14.6667 30.4174 15.8256 33.2153 17.8885 35.2782C19.9514 37.3411 22.7493 38.5 25.6667 38.5C28.584 38.5 31.3819 37.3411 33.4448 35.2782C35.5077 33.2153 36.6667 30.4174 36.6667 27.5V25.355C37.8904 24.9225 38.9218 24.0713 39.5787 22.9519C40.2355 21.8324 40.4754 20.5168 40.256 19.2376C40.0366 17.9583 39.372 16.7978 38.3797 15.9612C37.3874 15.1246 36.1312 14.6658 34.8333 14.6658C33.5354 14.6658 32.2793 15.1246 31.287 15.9612C30.2947 16.7978 29.6301 17.9583 29.4107 19.2376C29.1913 20.5168 29.4312 21.8324 30.088 22.9519C30.7448 24.0713 31.7763 24.9225 33 25.355V27.5C33 29.4449 32.2274 31.3102 30.8521 32.6854C29.4768 34.0607 27.6116 34.8333 25.6667 34.8333C23.7217 34.8333 21.8565 34.0607 20.4812 32.6854C19.1059 31.3102 18.3333 29.4449 18.3333 27.5V27.3478C20.8968 26.9145 23.2239 25.5873 24.9019 23.6015C26.58 21.6157 27.5004 19.0998 27.5 16.5V12.8333C27.5 11.3746 26.9205 9.9757 25.8891 8.94425C24.8576 7.9128 23.4587 7.33333 22 7.33333C22 6.8471 21.8068 6.38079 21.463 6.03697C21.1192 5.69315 20.6529 5.5 20.1667 5.5C19.6804 5.5 19.2141 5.69315 18.8703 6.03697C18.5265 6.38079 18.3333 6.8471 18.3333 7.33333V11C18.3333 11.4862 18.5265 11.9525 18.8703 12.2964C19.2141 12.6402 19.6804 12.8333 20.1667 12.8333C20.6529 12.8333 21.1192 12.6402 21.463 12.2964C21.8068 11.9525 22 11.4862 22 11C22.4862 11 22.9525 11.1932 23.2964 11.537C23.6402 11.8808 23.8333 12.3471 23.8333 12.8333V16.5C23.8333 18.4449 23.0607 20.3102 21.6854 21.6855C20.3102 23.0607 18.4449 23.8333 16.5 23.8333C14.5551 23.8333 12.6898 23.0607 11.3145 21.6855C9.93928 20.3102 9.16667 18.4449 9.16667 16.5V12.8333C9.16667 12.3471 9.35982 11.8808 9.70364 11.537C10.0475 11.1932 10.5138 11 11 11C11 11.4862 11.1932 11.9525 11.537 12.2964C11.8808 12.6402 12.3471 12.8333 12.8333 12.8333C13.3196 12.8333 13.7859 12.6402 14.1297 12.2964C14.4735 11.9525 14.6667 11.4862 14.6667 11V7.33333Z" fill="#FEBC4E"/>
</svg>
